<?xml version="1.0" encoding="utf-8"?>
<!-- Generator: Adobe Illustrator 21.0.0, SVG Export Plug-In . SVG Version: 6.00 Build 0)  -->
<svg version="1.1" id="Layer_1" xmlns="http://www.w3.org/2000/svg" xmlns:xlink="http://www.w3.org/1999/xlink" x="0px" y="0px"
	 viewBox="0 0 93 38" style="enable-background:new 0 0 93 38;" xml:space="preserve">
<style type="text/css">
	.st0{fill:#FFFFFF;}
</style>
<title>Artboard 1 copy</title>
<path class="st0" d="M42.2,23.8L40,16.9l-2.2,6.8h-1l-2.7-8.1h1l2.2,7l2.2-7h1l2.2,7l2.2-7h1l-2.7,8.1H42.2z"/>
<path class="st0" d="M51.5,23.8v-8.1h0.9v8.1L51.5,23.8z"/>
<path class="st0" d="M64.9,23.8L60,17.2v6.5h-0.9v-8.1h1l4.9,6.5v-6.5h0.9v8.1L64.9,23.8z"/>
<path class="st0" d="M79.2,19.8v3c-0.9,0.7-1.9,1-3,1.1c-2.3,0.1-4.2-1.6-4.3-3.9c-0.1-2.3,1.6-4.2,3.9-4.3c0.1,0,0.3,0,0.4,0
	c1.1,0,2.2,0.4,3,1.1l-0.5,0.7c-0.7-0.6-1.6-0.9-2.5-0.9c-1.8,0-3.2,1.4-3.2,3.2c0,1.8,1.4,3.2,3.2,3.2c0,0,0,0,0,0
	c0.8,0,1.5-0.2,2.1-0.7v-2.5H79.2z"/>
<path class="st0" d="M90.8,16.3l-0.4,0.9c-0.7-0.4-1.4-0.7-2.2-0.7c-1,0-1.7,0.4-1.7,1.1c0,2.1,4.6,1,4.6,4c0,1.4-1.2,2.2-2.9,2.2
	c-1.2,0-2.3-0.5-3.1-1.2l0.4-0.8c0.7,0.7,1.7,1.1,2.7,1.2c1.2,0,1.9-0.5,1.9-1.2c0-2.1-4.6-1-4.6-3.9c0-1.3,1.1-2.1,2.8-2.1
	C89.1,15.6,90,15.9,90.8,16.3z"/>
<path class="st0" d="M10.3,19.7L2.9,35c-0.1,0.2,0,0.4,0.2,0.5c0.1,0.1,0.3,0,0.4-0.1l15.3-15.5c0.1-0.1,0.1-0.1,0.2-0.2L10.3,19.7z
	"/>
<path class="st0" d="M10.3,18.8H19c0-0.1-0.1-0.1-0.2-0.2L3.5,3.1C3.4,2.9,3.1,2.9,3,3.1C2.8,3.2,2.8,3.4,2.9,3.5L10.3,18.8z"/>
</svg>
